<svg width="25" height="24" viewBox="0 0 25 24" fill="none" xmlns="http://www.w3.org/2000/svg">
    <path
        d="M17.7564 2H7.75641C4.99641 2 2.75641 4.23 2.75641 6.98V12.96V13.96C2.75641 16.71 4.99641 18.94 7.75641 18.94H9.25641C9.52641 18.94 9.88641 19.12 10.0564 19.34L11.5564 21.33C12.2164 22.21 13.2964 22.21 13.9564 21.33L15.4564 19.34C15.6464 19.09 15.9464 18.94 16.2564 18.94H17.7564C20.5164 18.94 22.7564 16.71 22.7564 13.96V6.98C22.7564 4.23 20.5164 2 17.7564 2ZM8.75641 12C8.19641 12 7.75641 11.55 7.75641 11C7.75641 10.45 8.20641 10 8.75641 10C9.30641 10 9.75641 10.45 9.75641 11C9.75641 11.55 9.31641 12 8.75641 12ZM12.7564 12C12.1964 12 11.7564 11.55 11.7564 11C11.7564 10.45 12.2064 10 12.7564 10C13.3064 10 13.7564 10.45 13.7564 11C13.7564 11.55 13.3164 12 12.7564 12ZM16.7564 12C16.1964 12 15.7564 11.55 15.7564 11C15.7564 10.45 16.2064 10 16.7564 10C17.3064 10 17.7564 10.45 17.7564 11C17.7564 11.55 17.3164 12 16.7564 12Z"
        fill="white" />
</svg>