<svg width="25" height="24" viewBox="0 0 25 24" fill="none" xmlns="http://www.w3.org/2000/svg">
    <path
        d="M20.7964 6.81969L15.0364 2.78969C13.4664 1.68969 11.0564 1.74969 9.5464 2.91969L4.5364 6.82969C3.5364 7.60969 2.7464 9.20969 2.7464 10.4697V17.3697C2.7464 19.9197 4.8164 21.9997 7.3664 21.9997H18.1464C20.6964 21.9997 22.7664 19.9297 22.7664 17.3797V10.5997C22.7664 9.24969 21.8964 7.58969 20.7964 6.81969ZM13.5064 17.9997C13.5064 18.4097 13.1664 18.7497 12.7564 18.7497C12.3464 18.7497 12.0064 18.4097 12.0064 17.9997V14.9997C12.0064 14.5897 12.3464 14.2497 12.7564 14.2497C13.1664 14.2497 13.5064 14.5897 13.5064 14.9997V17.9997Z"
        fill="white" />
</svg>