<svg width="25" height="24" viewBox="0 0 25 24" fill="none" xmlns="http://www.w3.org/2000/svg">
    <path
        d="M12.7564 2C10.1364 2 8.00641 4.13 8.00641 6.75C8.00641 9.32 10.0164 11.4 12.6364 11.49C12.7164 11.48 12.7964 11.48 12.8564 11.49C12.8764 11.49 12.8864 11.49 12.9064 11.49C12.9164 11.49 12.9164 11.49 12.9264 11.49C15.4864 11.4 17.4964 9.32 17.5064 6.75C17.5064 4.13 15.3764 2 12.7564 2Z"
        fill="white" />
    <path
        d="M17.8362 14.1499C15.0462 12.2899 10.4962 12.2899 7.68625 14.1499C6.41625 14.9999 5.71625 16.1499 5.71625 17.3799C5.71625 18.6099 6.41625 19.7499 7.67625 20.5899C9.07625 21.5299 10.9162 21.9999 12.7562 21.9999C14.5962 21.9999 16.4362 21.5299 17.8362 20.5899C19.0962 19.7399 19.7962 18.5999 19.7962 17.3599C19.7862 16.1299 19.0962 14.9899 17.8362 14.1499Z"
        fill="white" />
</svg>